<?xml version="1.0" standalone="no"?>
<!DOCTYPE svg PUBLIC "-//W3C//DTD SVG 20010904//EN"
 "http://www.w3.org/TR/2001/REC-SVG-20010904/DTD/svg10.dtd">
<svg version="1.0" xmlns="http://www.w3.org/2000/svg"
 width="840.000000pt" height="1060.000000pt" viewBox="0 0 840.000000 1060.000000"
 preserveAspectRatio="xMidYMid meet">

<g transform="translate(0.000000,1060.000000) scale(0.100000,-0.100000)"
fill="#000000" stroke="none">
<path d="M793 10190 c-469 -5 -482 -6 -510 -26 -15 -12 -37 -36 -48 -55 -20
-34 -20 -52 -19 -3494 0 -2455 3 -3508 11 -3625 10 -143 16 -177 43 -255 68
-192 173 -358 315 -500 110 -109 209 -179 357 -250 223 -106 223 -106 1408
-126 322 -5 608 -13 636 -18 90 -16 195 -67 284 -138 46 -37 243 -225 439
-418 196 -192 378 -365 405 -383 64 -41 106 -42 169 -2 26 16 201 182 390 367
458 452 498 486 643 544 68 27 91 31 242 39 92 5 487 12 877 15 l710 7 110 35
c149 48 313 128 415 203 279 205 476 533 502 835 12 141 22 6790 11 7013 -10
192 -12 195 -113 212 -36 6 -229 15 -430 20 -381 10 -5998 10 -6847 0z m7076
-3032 c0 -1492 -4 -3053 -9 -3468 -7 -742 -8 -756 -30 -820 -94 -274 -303
-509 -544 -609 -139 -58 -193 -62 -1031 -71 -751 -8 -825 -12 -959 -46 -91
-22 -291 -125 -371 -189 -38 -31 -217 -200 -398 -376 l-327 -321 -318 312
c-174 172 -353 341 -397 377 -90 73 -284 174 -380 198 -134 33 -212 37 -950
45 -721 9 -840 14 -950 41 -224 54 -451 253 -578 504 -19 39 -45 100 -57 135
-22 64 -23 78 -30 800 -5 404 -9 1965 -9 3468 l-1 2732 3670 0 3670 0 -1
-2712z"/>
</g>
</svg>
